{"title":"Oh!.Dream.Land.1989.DVDRip.XviD.AC3-BAUM","uid":6134954,"size":1066054968,"categoryP":"video","categoryS":"movies","magnet":"?xt=urn:btih:8326f6b58193ff345723d4acfbcae4704ab59671&amp;dn=Oh%21.Dream.Land.1989.DVDRip.XviD.AC3-BAUM&amp;tr=udp%3A%2F%2Ftracker.openbittorrent.com%3A80&amp;tr=udp%3A%2F%2Fopen.demonii.com%3A1337&amp;tr=udp%3A%2F%2Ftracker.coppersurfer.tk%3A6969&amp;tr=udp%3A%2F%2Fexodus.desync.com%3A6969","seeders":0,"leechers":0,"uploader":null,"files":-1,"time":1296265547,"description":"Title: Oh! Dream Land (1989)\nYear: 1989\nCountry: South Korea\nLanguage: Korean\nFilm Genre: Drama / Protest\nSubtitles: English(srt/idx,sub), Korean(smi/idx,sub)\nInfo Link: http://kmdb.or.kr/eng/md_basic.asp?nation=K&amp;p_dataid=05204\n\n\nPLOT or SYNOPSIS\nAfter the Gwangju Democratization Movement is terminated by brute force, Jong- soo runs from the authorities and goes to Dongducheon in search of Tae-ho, an older neighbor from his hometown. He is a student at Jeonnam University and a night school teacher who is on the run because of his involvement in the Gwangju Movement. Goo-chil had promised to keep fighting with him after becoming his comrade and work for democracy. Jong-soo's recurring memories push him further from reality while the lives of the people around him are overtaken by suffering.\n\n\nGeneral\nComplete name : Oh!.Dream.Land.1989.DVDRip.XviD.AC3-BAUM.avi\nFormat : AVI\nFormat/Info : Audio Video Interleave\nFormat profile : OpenDML\nFile size : 1 009 MiB\nDuration : 1h 23mn\nOverall bit rate : 1 696 Kbps\nWriting application : AVI-Mux GUI 1.17.8.3, Feb 16 201019:42:50\n\nVideo #0\nID : 0\nFormat : MPEG-4 Visual\nFormat profile : Advanced Simple@L5\nFormat settings, BVOP : Yes\nFormat settings, QPel : No\nFormat settings, GMC : No warppoints\nFormat settings, Matrix : Default (H.263)\nCodec ID : XVID\nCodec ID/Hint : XviD\nDuration : 1h 23mn\nBit rate : 1 498 Kbps\nWidth : 672 pixels\nHeight : 480 pixels\nDisplay aspect ratio : 1.400\nFrame rate : 23.976 fps\nColor space : YUV\nChroma subsampling : 4:2:0\nBit depth : 8 bits\nScan type : Progressive\nBits/(Pixel*Frame) : 0.194\nStream size : 892 MiB (88%)\nWriting library : XviD 1.2.1 (UTC 2008-12-04)\n\nAudio #1\nID : 1\nFormat : AC-3\nFormat/Info : Audio Coding 3\nMode extension : CM (complete main)\nCodec ID : 2000\nDuration : 1h 23mn\nBit rate mode : Constant\nBit rate : 192 Kbps\nChannel(s) : 2 channels\nChannel positions : Front: L R\nSampling rate : 48.0 KHz\nBit depth : 16 bits\nStream size : 114 MiB (11%)\nAlignment : Aligned on interleaves\nInterleave, duration : 64 ms (1.53 video frames)\nInterleave, preload duration : 192 ms\nTitle : VTS_01_1 T80 2_0ch 192Kbps DELAY 0ms","torrent":{"xt":"urn:btih:8326f6b58193ff345723d4acfbcae4704ab59671","amp;dn":"Oh%21.Dream.Land.1989.DVDRip.XviD.AC3-BAUM","amp;tr":["udp%3A%2F%2Ftracker.openbittorrent.com%3A80","udp%3A%2F%2Fopen.demonii.com%3A1337","udp%3A%2F%2Ftracker.coppersurfer.tk%3A6969","udp%3A%2F%2Fexodus.desync.com%3A6969"],"infoHash":"8326f6b58193ff345723d4acfbcae4704ab59671","infoHashBuffer":{"type":"Buffer","data":[131,38,246,181,129,147,255,52,87,35,212,172,251,202,228,112,74,181,150,113]},"announce":[],"urlList":[]}}